<?xml version="1.0" encoding="utf-8"?>
<!-- Generator: Adobe Illustrator 27.9.0, SVG Export Plug-In . SVG Version: 6.00 Build 0)  -->
<svg version="1.1" id="Layer_1" xmlns="http://www.w3.org/2000/svg" xmlns:xlink="http://www.w3.org/1999/xlink" x="0px" y="0px"
	 viewBox="0 0 110.2 135.2" style="enable-background:new 0 0 110.2 135.2;" xml:space="preserve">
<g>
	<path d="M66.6,52.7c0,0,16-23,17.1-26c1.1-3.2,0.2-3.7,0.2-3.7h26.2c0,0-3.2,1.4-8,8.4c-4.9,7-23,36.2-23,36.2l19.7,29.2
		c0,0,9,13.1,11.3,13s-25.7,0-25.7,0s0.5-1.7-0.6-4.5c-0.9-2.2-16.4-23.8-16.4-23.8l-39.3,49c0,0-2.4,3.6-1.7,4.6H0
		c0,0,1.5,1.2,11-9.5s41.9-58,41.9-58S19.3,17.4,5,3.5C0.6-0.7,0,0.1,0,0.1L25.9,0c0,0-1,1.8,2.3,5S66.6,52.7,66.6,52.7z"/>
</g>
</svg>
