<svg width="8132" height="2903" viewBox="0 0 8132 2903" fill="none" xmlns="http://www.w3.org/2000/svg">
<path d="M211.234 267.3C496.647 410.421 749.515 610.807 954.071 855.961C1255.55 1221.77 1239.15 1445.88 1528.72 1654.86C1810.16 1857.81 2196.43 1913.73 2509.82 1837.06C2937.45 1732.37 2956.79 1447.43 3504.95 996.119C3827.31 730.941 4431.81 233.101 5144.79 281.316C5505 305.703 5863.1 467.445 6195.98 617.694C6603.98 801.861 6662.56 896.467 6882.75 940.056C7144.29 991.914 7548.64 955.053 8130.16 491.552" stroke="#333333" stroke-width="2" stroke-miterlimit="10"/>
<path d="M203.248 319.719C460.432 445.453 692.283 617.44 887.219 827.089C905.86 847.412 924.501 868.295 943.282 889.739C1247.85 1244.06 1235.79 1458.08 1521.71 1661.87C1646.35 1751.04 1787.46 1814.55 1936.86 1848.7C2043.87 1873.06 2153.62 1883.24 2263.29 1878.97C2345.3 1875.74 2426.68 1863.28 2505.9 1841.83C2594.18 1819.14 2678.1 1782.01 2754.26 1731.95C2894.42 1639.44 2992.53 1514.56 3143.48 1357.87C3257.19 1239.94 3380.89 1132.08 3513.22 1035.5C3583.3 983.645 3665.15 921.135 3759.76 857.083C4012.88 685.25 4336.79 498.56 4725.44 434.087C4857.32 411.584 4991.32 404.062 5124.89 411.662C5145.36 412.783 5165.68 414.465 5185.72 416.427C5384.19 435.629 5573.26 486.506 5766.4 554.062C5910.9 603.958 6047.55 666.188 6183.09 724.634C6239.85 749.582 6290.59 772.287 6336.42 793.591C6613.23 922.676 6685.13 991.914 6874.2 1022.19C7017.87 1045.17 7203.72 1041.11 7439.6 959.258C7633.02 892.262 7862.04 771.587 8130.16 572.002" stroke="#333333" stroke-width="2" stroke-miterlimit="10"/>
<path d="M195.82 372.418C450.341 493.401 680.764 659.617 875.867 862.969C894.554 882.591 913.242 902.681 931.93 923.237C1240.28 1266.2 1232.85 1469.85 1514.85 1668.88C1639.78 1759.22 1781.34 1823.95 1931.4 1859.35C2039.04 1883.87 2149.51 1893.68 2259.79 1888.5C2341.92 1884.32 2423.24 1870.2 2501.98 1846.45C2589.82 1821.07 2673.28 1782.45 2749.5 1731.95C2895.26 1636.64 2998.7 1515.82 3147.97 1369.5C3262.21 1258.44 3387.34 1159.17 3521.49 1073.21C3591.57 1027.23 3671.6 970.891 3765.22 915.108C4014.7 766.401 4318.85 610.405 4703.58 559.528C4836.5 541.215 4970.83 535.209 5104.85 541.588C5125.6 542.709 5146.06 544.111 5166.24 545.933C5368.07 563.593 5552.38 607.182 5749.44 667.309C5897.87 712.72 6033.26 773.829 6169.91 831.434C6226.68 855.261 6277.97 876.985 6324.93 897.308C6602.58 1017.98 6677 1081.62 6865.38 1104.04C7008.9 1121.14 7193.34 1111.75 7430.49 1028.92C7624.19 961.08 7856.15 842.646 8130.16 652.733" stroke="#333333" stroke-width="2" stroke-miterlimit="10"/>
<path d="M186.99 424.275C439.43 540.677 668.913 701.467 864.514 898.989C883.155 918.05 901.936 937.392 920.577 957.154C1232.99 1288.63 1229.48 1482.18 1507.7 1675.88C1639.45 1767.55 1769.23 1833.56 1925.51 1870.14C2033.87 1894.86 2145.16 1904.3 2256.14 1898.17C2338.43 1893 2419.7 1877.17 2497.91 1851.08C2585.36 1823.01 2668.48 1782.92 2744.87 1731.95C2895.96 1633.83 3004.59 1517.36 3152.31 1381.55C3267.19 1277.3 3393.86 1186.85 3529.76 1112.03C3600.54 1071.94 3678.18 1021.77 3770.69 974.254C4017.79 847.271 4300.91 722.951 4681.72 685.389C4815.68 671.319 4950.49 666.87 5085.09 672.074C5105.97 673.055 5127.14 674.316 5146.76 675.998C5344.79 692.217 5540.79 727.466 5732.06 781.257C5884.41 822.042 6018.68 882.59 6157.02 938.653C6213.78 961.639 6265.5 982.242 6313.71 1001.58C6592.07 1113.71 6669.15 1171.46 6856.69 1186.45C7000.21 1197.94 7183.67 1182.81 7421.66 1098.99C7615.78 1031.16 7850.27 913.565 8130.16 732.622" stroke="#333333" stroke-width="2" stroke-miterlimit="10"/>
<path d="M178.859 476.555C428.859 588.431 657.132 743.586 853.159 934.87C871.8 953.371 890.722 971.871 909.222 990.933C1225 1311.47 1226.4 1493.68 1500.69 1683.03C1635.38 1775.67 1760.82 1843.51 1919.9 1880.93C2028.89 1905.9 2140.92 1914.91 2252.5 1907.7C2335.16 1901.71 2416.58 1884.21 2494.41 1855.7C2581.27 1825.19 2663.95 1783.89 2740.53 1732.79C2896.94 1631.73 3011.45 1520.03 3157.08 1393.47C3259.81 1304.32 3381.33 1226.4 3538.45 1150.71C3609.79 1116.23 3685.75 1072.08 3776.71 1032.98C4022.83 927.161 4283.52 835.358 4659.71 811.111C4794.53 801.167 4929.78 798.219 5064.9 802.281C5086.07 803.122 5106.95 804.243 5126.99 805.645C5325.38 818.652 5522.31 848.472 5715.66 894.785C5872.21 930.945 6004.52 991.073 6144.26 1045.17C6200.32 1067.32 6253.44 1087.22 6302.78 1105.3C6581.69 1209.58 6661.44 1260.74 6848.41 1268.16C6991.94 1273.91 7174.14 1253.31 7413.11 1168.65C7607.23 1099.84 7844.52 984.345 8130.16 812.652" stroke="#333333" stroke-width="2" stroke-miterlimit="10"/>
<path d="M170.873 528.833C418.376 636.259 645.382 785.779 841.809 970.75C860.45 988.55 879.371 1006.21 897.872 1024.43C1217.43 1332.78 1223.18 1505.87 1493.4 1689.9C1631.04 1783.66 1752.13 1853.32 1913.88 1891.58C2023.59 1916.76 2136.45 1925.36 2248.71 1917.09C2331.4 1910.23 2412.6 1891.1 2489.65 1860.33C2575.99 1827.24 2658.31 1784.5 2735.06 1732.93C2896.94 1629.21 3017.48 1522.69 3160.72 1405.38C3266.54 1319.04 3390.72 1251.2 3546.02 1189.26C3618.2 1160.38 3692.48 1122.54 3781.48 1091.14C4028.58 1005.65 4265.31 947.203 4637.57 935.991C4766.93 932.066 4910.03 927.161 5044.72 931.786C5066.17 932.487 5086.77 933.468 5107.24 934.589C5305.68 944.375 5503.13 968.735 5698 1007.47C5858.48 1039.01 5989.81 1098.71 6131.09 1151.69C6187.85 1173 6240.69 1191.36 6291.29 1208.74C6570.76 1305.87 6653.6 1353.52 6839.31 1350.58C6982.83 1348.33 7163.91 1324.37 7403.72 1238.45C7597.98 1168.37 7838.21 1055.26 8129.6 892.962" stroke="#333333" stroke-width="2" stroke-miterlimit="10"/>
<path d="M162.742 580.972C407.794 684.057 633.571 827.987 830.455 1006.63C849.096 1023.73 868.157 1040.69 886.518 1058.07C1210 1355.2 1220.09 1517.64 1486.25 1696.91C1626.41 1791.51 1743.44 1863.13 1908.13 1902.38C2018.36 1927.61 2131.8 1935.79 2244.51 1926.62C2327.46 1918.81 2408.67 1898 2485.16 1864.95C2570.8 1829.14 2652.71 1785.01 2729.73 1733.21C2896.94 1626.55 3024.07 1524.65 3164.22 1417.15C3273.27 1333.06 3400.25 1276.15 3553.44 1227.8C3626.75 1204.53 3706.49 1191.08 3786.1 1150.57C4044.42 1139.78 4247.64 1038.45 4614.72 1062.27C4744.36 1070.82 4889.71 1058.91 5023.84 1062.27C5045.56 1062.97 5066.59 1063.67 5086.77 1064.66C5302.89 1074.89 5468.28 1086.8 5680.2 1120.72C5844.6 1147.49 5974.53 1206.92 6117.35 1258.21C6173.41 1278.68 6227.38 1296.06 6279.23 1312.45C6558.85 1401.03 6644.63 1438.6 6830.05 1431.59C6973.72 1425.84 7153.68 1394.17 7394.33 1307.55C7588.87 1237.47 7831.62 1125.34 8129.04 972.432" stroke="#333333" stroke-width="2" stroke-miterlimit="10"/>
<path d="M154.615 633.251C397.188 731.988 621.724 870.233 819.104 1042.37C837.885 1058.91 856.947 1075.03 875.167 1091.57C1203.28 1377.21 1217.57 1529.28 1479.67 1703.91C1623.33 1799.5 1735.46 1872.94 1902.81 1913.17C2013.99 1938.72 2128.52 1946.43 2242.13 1936.02C2334.49 1928.31 2410.32 1900.56 2482.36 1869.44C2567.36 1830.98 2648.98 1785.45 2726.37 1733.35C2898.91 1623.88 3033.18 1527.32 3170.11 1428.93C3282.24 1348.05 3412.59 1301.38 3562.56 1266.2C3637.4 1248.68 3715.33 1244.62 3792.55 1209.3C4050.87 1229.2 4230.27 1173.56 4593.7 1187.71C4724.04 1192.9 4871.07 1189.82 5004.78 1192.76C5026.64 1192.76 5047.95 1193.74 5067.99 1194.44C5287.76 1202.71 5448.38 1206.92 5664.08 1235.09C5832.27 1257.23 5960.94 1316.24 6105.3 1365.99C6161.36 1385.62 6215.74 1401.87 6268.86 1417.29C6549.18 1498.3 6637.62 1529.42 6822.35 1514.42C6966.01 1503.07 7144.71 1465.93 7386.34 1378.33C7581.02 1308.25 7826.58 1197.24 8129.88 1053.72" stroke="#333333" stroke-width="2" stroke-miterlimit="10"/>
<path d="M146.621 685.39C386.602 779.93 609.825 912.434 807.746 1077.83C826.527 1093.81 845.729 1109.23 864.65 1124.78C1196.12 1398.93 1215.05 1540.49 1472.66 1710.36C1619.26 1806.93 1727.04 1882.33 1897.19 1923.26C2008.91 1949.1 2124.1 1956.48 2238.2 1945.13C2331.82 1936.58 2406.39 1906.58 2478.01 1873.65C2566.45 1833 2639.19 1785.35 2721.18 1733.49C2899.18 1621.36 3060.22 1553.95 3174.17 1440.7C3303.26 1385.62 3423.93 1280.5 3570.96 1304.75C3647.49 1317.36 3723.73 1298.02 3798.3 1268.02C4056.75 1318.48 4213.3 1286.67 4572.11 1313.3C4703.02 1322.97 4852.42 1320.72 4985.01 1322.83C5007.3 1322.83 5028.6 1322.83 5048.78 1324.09C5271.92 1330.39 5427.91 1326.47 5647.26 1348.62C5819.79 1365.85 5946.78 1424.58 6092.54 1472.79C6148.6 1491.58 6203.55 1506.85 6257.79 1521.15C6538.1 1594.73 6630.05 1618.42 6814.07 1596.41C6957.88 1579.17 7135.46 1536.57 7377.79 1447.99C7572.75 1377.07 7820.41 1268.02 8130.16 1133.89" stroke="#333333" stroke-width="2" stroke-miterlimit="10"/>
<path d="M138.494 737.528C376.023 828.07 597.988 955.082 796.395 1113.99C815.177 1129.27 834.378 1143.28 853.44 1158.56C1189.82 1421.22 1211.82 1552.26 1465.65 1717.51C1615.34 1814.92 1718.63 1892.29 1891.45 1934.19C2003.87 1960.15 2119.84 1967.11 2234.56 1954.8C2329.44 1945.41 2402.75 1912.75 2474.09 1878.41C2560.84 1836.36 2632.74 1786.47 2716.42 1733.63C2899.75 1618.42 3069.2 1558.99 3178.94 1452.33C3312.51 1403.28 3440.75 1304.89 3579.65 1343.15C3655.62 1364.03 3732.28 1351.56 3803.9 1326.75C4062.5 1407.76 4196.35 1400.05 4550.39 1438.88C4681.85 1452.89 4832.38 1451.77 4965.25 1452.89H5029.3C5256.08 1457.1 5407.73 1445.46 5630.44 1461.3C5807.04 1473.78 5932.48 1532.36 6079.79 1578.89C6135.85 1596.83 6191.21 1610.99 6246.72 1624.16C6527.03 1690.6 6622.34 1707 6805.67 1677.71C6949.47 1654.58 7125.93 1606.5 7369.1 1517.08C7564.2 1445.46 7815.22 1338.24 8130.3 1213.36" stroke="#333333" stroke-width="2" stroke-miterlimit="10"/>
<path d="M130.367 789.526C365.159 876.22 585.643 997.587 784.484 1149.59C803.406 1163.61 822.607 1177.62 841.669 1191.64C1181.69 1442.66 1208.46 1563.2 1458.36 1724.24C1611.14 1822.35 1710.65 1901.82 1885.56 1944.56C1998.61 1970.85 2115.35 1977.44 2230.63 1964.05C2326.92 1953.81 2398.82 1919.34 2469.74 1882.76C2554.82 1838.47 2626.02 1787.31 2711.38 1733.63C2900.17 1615.61 3077.89 1563.9 3182.59 1463.96C3320.78 1420.8 3448.89 1405.38 3587.22 1381.41C3666.55 1396.55 3739.71 1404.82 3808.95 1385.34C4067.54 1497.46 4178.41 1513.44 4527.96 1564.04C4659.99 1583.24 4812.48 1584.22 4944.79 1582.68C4967.5 1582.68 4989.22 1582.68 5009.26 1582.68C5239.68 1579.73 5386.29 1565.16 5612.93 1574.97C5793.73 1582.68 5917.49 1640.98 6066.48 1685.97C6122.54 1702.93 6178.6 1716.25 6234.67 1728.02C6514.98 1787.31 6613.09 1796.14 6796.14 1759.56C6940.08 1730.68 7115.28 1677.14 7359.57 1586.74C7554.81 1514.56 7808.08 1409.02 8129.46 1293.39" stroke="#333333" stroke-width="2" stroke-miterlimit="10"/>
<path d="M122.377 841.665C354.853 924.461 574.241 1040.2 773.831 1185.33C792.612 1199.35 811.954 1212.38 831.015 1225.56C1175.52 1464.81 1206.22 1574.97 1451.63 1731.1C1607.49 1830.34 1701.82 1911.63 1880.1 1955.36C1994.11 1981.96 2111.95 1988.08 2228.11 1973.44C2326.22 1962.36 2397 1925.78 2466.38 1887.38C2550.47 1841.27 2620.55 1788.43 2707.31 1733.21C2901.29 1612.39 3087.56 1568.38 3187.49 1475.18C3330.17 1438.04 3460.24 1433.13 3596.05 1419.11C3676.36 1441.54 3748.4 1457.52 3815.12 1443.22C4073.71 1585.48 4161.73 1626.41 4506.66 1688.78C4639.25 1712.74 4793.56 1714.43 4925.45 1712.04C4948.43 1712.04 4970.16 1712.04 4990.34 1712.04C5224.13 1706.86 5366.25 1684.01 5596.52 1688.08C5781.25 1691.02 5903.61 1749.19 6054.14 1792.49C6110.2 1808.75 6166.27 1820.53 6224.43 1831.88C6504.75 1884.3 6606.78 1885.42 6788.57 1841.55C6932.51 1806.79 7106.59 1747.92 7351.72 1656.54C7547.1 1583.8 7803.73 1479.94 8130.44 1373.7" stroke="#333333" stroke-width="2" stroke-miterlimit="10"/>
<path d="M114.25 893.663C344.229 972.769 562.323 1082.92 762.48 1221.07C781.402 1235.09 800.743 1246.58 819.805 1259.05C1168.94 1486.39 1203.56 1586.18 1444.63 1737.97C1603.57 1837.9 1693.41 1921.16 1874.49 1965.87C1988.93 1992.64 2107.28 1998.38 2223.77 1982.83C2321.88 1970.77 2393.08 1932.09 2462.04 1891.72C2543.89 1843.79 2613.41 1789.27 2702.27 1733.91C2901.71 1610.15 3096.25 1573.99 3191.56 1487.37C3338.86 1456.12 3470.33 1460.88 3604.04 1458.36C3685.19 1487.93 3756.25 1511.76 3820.31 1502.65C4079.04 1675.6 4144.07 1740.92 4484.51 1815.06C4617.66 1843.93 4773.8 1844.21 4904.99 1843.09C4928.25 1843.09 4950.12 1843.09 4970.3 1843.09C5207.73 1835.66 5345.22 1810.99 5579.15 1803.01C5767.8 1796.56 5888.76 1859.07 6040.83 1901.12C6097.45 1916.38 6154.86 1928.55 6212.8 1937.56C6493.12 1983.25 6598.52 1976.52 6779.6 1925.36C6923.68 1884.72 7096.5 1820.52 7342.47 1728.16C7538.7 1654.86 7797.43 1552.54 8130.02 1455.69" stroke="#333333" stroke-width="2" stroke-miterlimit="10"/>
<path d="M106.119 915.668C333.631 991.402 550.423 1096.17 751.126 1227.38C770.047 1239.99 789.529 1251.49 808.731 1263.12C1162.35 1478.54 1201.17 1567.96 1437.62 1715.27C1599.64 1816.18 1685 1901.4 1868.75 1946.95C1983.87 1973.98 2103.03 1979.35 2220.12 1962.78C2320.19 1949.75 2389.85 1909.1 2458.39 1866.78C2538.14 1816.04 2606.54 1759.98 2697.5 1703.91C2902.27 1577.77 3105.36 1548.76 3195.9 1469.01C3347.69 1443.64 3480.7 1458.5 3612.31 1466.63C3694.3 1503.49 3764.24 1535.02 3825.77 1531.24C4084.64 1734.75 4126.83 1825.57 4462.51 1909.66C4596.36 1943.44 4754.32 1944.14 4885.22 1942.04L4950.82 1940.78C5191.89 1936.58 5324.62 1893.13 5562.19 1884.72C5755.18 1877.71 5874.32 1935.87 6027.93 1975.82C6085.17 1990.3 6143.2 2001.48 6201.73 2009.32C6481.34 2048.28 6590.81 2033.42 6771.05 1975.12C6915.27 1928.59 7086.97 1859.07 7333.78 1765.72C7530 1691.86 7791.68 1591.23 8130.16 1503.77" stroke="#333333" stroke-width="2" stroke-miterlimit="10"/>
<path d="M97.709 924.498C322.673 996.384 538.118 1095.21 739.352 1218.83C758.413 1230.88 777.895 1241.53 797.097 1252.33C1155.9 1456.12 1198.09 1535.73 1430.61 1678.13C1595.86 1779.74 1676.59 1867.06 1863.14 1913.59C1979.01 1940.66 2098.97 1945.42 2216.62 1927.61C2317.81 1913.59 2386.63 1871.54 2454.18 1826.69C2532.53 1775.25 2600.51 1717.23 2692.45 1660.18C2902.69 1530.82 3114.05 1509.94 3199.96 1436.91C3356.38 1417.43 3495.84 1420.52 3620.44 1461.3C3709.72 1490.59 3772.23 1545.4 3830.68 1545.4C4089.55 1779.46 4108.75 1895.79 4439.94 1991.24C4574.21 2030.2 4734.27 2031.18 4864.48 2028.24C4888.31 2028.24 4910.45 2027.12 4930.49 2026.56C5175.21 2020.11 5303.17 1968.67 5544.53 1954.1C5741.45 1942.18 5859.18 2000.35 6014.34 2038.19C6072.13 2052.06 6130.74 2062.26 6189.81 2068.74C6469.29 2101.26 6582.26 2078.13 6761.8 2012.68C6906.02 1960.12 7076.59 1885.28 7324.25 1791.09C7520.47 1716.67 7785.09 1617.72 8129.46 1538.81" stroke="#333333" stroke-width="2" stroke-miterlimit="10"/>
<path d="M89.998 933.047C312.506 1001.53 526.646 1094.7 728.417 1210.84C747.619 1222.19 767.241 1232 786.303 1242.09C1149.59 1433.27 1195.56 1502.23 1423.6 1640.98C1591.79 1743.3 1668.04 1832.72 1858.09 1880.09C1974.56 1907.97 2095.37 1912.73 2213.67 1894.11C2316.27 1879.11 2384.1 1834.54 2450.82 1788.43C2527.62 1735.31 2594.76 1675.32 2689.09 1617.44C2904.51 1485.27 3124.28 1472.23 3205.71 1405.8C3366.47 1391.78 3508.73 1407.34 3629.83 1456.96C3720.79 1494.24 3781.48 1555.07 3837.82 1561.93C4096.69 1826.69 4092.91 1968.39 4419.76 2074.63C4554.59 2118.78 4716.19 2119.9 4846.26 2116.68L4912.69 2114.43C5160.91 2105.88 5284.25 2046.32 5529.39 2025.86C5730.51 2008.9 5846.56 2067.9 6003.4 2103.64C6061.74 2117.02 6120.94 2126.39 6180.56 2131.67C6459.76 2157.88 6576.37 2126.35 6755.21 2053.75C6899.43 1995.3 7068.74 1915.13 7317.38 1819.96C7580.57 1715.25 7852.58 1634.2 8130.16 1577.77" stroke="#333333" stroke-width="2" stroke-miterlimit="10"/>
<path d="M81.8711 935.851C301.968 1001.26 514.806 1088.98 717.067 1197.66C736.409 1208.32 756.031 1217.43 775.092 1226.68C1143.29 1405.66 1192.9 1464.95 1416.59 1598.94C1588.15 1701.95 1659.63 1793.47 1851.79 1841.83C1968.99 1869.83 2090.64 1873.93 2209.47 1853.88C2313.19 1837.9 2380.18 1791.37 2446.2 1743.3C2521.32 1688.5 2587.61 1626.69 2683.34 1567.96C2904.23 1432.99 3131.85 1427.8 3209.07 1367.96C3374.46 1360.39 3518.96 1387.58 3637.12 1445.74C3729.62 1491.29 3788.63 1559.13 3842.31 1571.04C4101.32 1866.36 4074.41 2033.56 4396.77 2150.6C4532.17 2199.93 4695.73 2201.05 4825.24 2196.71C4849.48 2195.87 4872.05 2194.75 4892.09 2193.9C5144.38 2183.11 5262.53 2115.7 5511.17 2089.21C5716.22 2067.34 5830.87 2125.79 5989.25 2160.41C6048.18 2172.99 6107.95 2181.24 6168.09 2185.07C6447.14 2205.12 6567.26 2164.89 6745.4 2085.28C6889.62 2020.81 7057.81 1935.45 7307.29 1839.17C7572.81 1733.89 7848.59 1656.62 8130.16 1608.61" stroke="#333333" stroke-width="2" stroke-miterlimit="10"/>
<path d="M73.7402 927.861C291.469 990.139 503.016 1072.29 705.712 1173.28C725.054 1183.23 744.816 1191.64 763.878 1200.19C1137.12 1366.55 1190.94 1415.33 1409.59 1545.68C1584.36 1649.39 1651.22 1743.16 1846.18 1792.21C1964.03 1820.54 2086.46 1824.26 2205.82 1803.15C2310.8 1786.05 2376.96 1737.69 2442.13 1687.66C2515.71 1631.59 2581.17 1567.54 2678.58 1507.97C2904.79 1370.2 3141.1 1372.58 3213.42 1319.6C3383.29 1317.92 3529.75 1357.44 3645.38 1424.16C3739.01 1478.26 3796.76 1552.54 3847.91 1569.64C4106.92 1895.65 4056.75 2088.23 4374.91 2215.91C4510.58 2270.57 4676.25 2271.97 4805.33 2266.65C4829.72 2265.66 4852.42 2264.4 4872.47 2263.42C5127.98 2250.53 5241.5 2174.84 5493.79 2142.47C5702.9 2115.56 5816.15 2174.14 5975.79 2207.08C6035.37 2218.92 6095.77 2226.18 6156.45 2228.8C6435.37 2242.82 6558.85 2193.76 6736.29 2107.15C6880.51 2037.07 7047.72 1945.97 7298.04 1848.84C7565.49 1742.49 7844.71 1668.57 8129.74 1628.65" stroke="#333333" stroke-width="2" stroke-miterlimit="10"/>
<path d="M65.7539 919.873C281.097 979.275 491.312 1055.91 694.362 1149.03C713.844 1158.28 733.606 1165.71 752.668 1173.56C1131.09 1327.73 1187.16 1366.27 1402.58 1492.42C1580.44 1596.69 1642.81 1692.7 1840.43 1742.74C1958.98 1771.48 2082.27 1774.77 2202.18 1752.41C2308.42 1734.05 2373.73 1684.15 2438.21 1632.01C2510.25 1573.85 2574.72 1508.39 2673.81 1447.99C2905.49 1307.83 3150.35 1317.36 3217.77 1271.11C3372.49 1272.95 3523.54 1318.47 3653.52 1402.44C3748.12 1465.23 3804.89 1545.82 3853.38 1568.24C4112.53 1924.8 4038.95 2142.89 4353.04 2281.22C4489 2341.35 4656.77 2342.47 4785.29 2336.59C4810.1 2335.46 4832.81 2334.06 4852.99 2332.8C5111.86 2317.38 5221.18 2234.69 5477.11 2195.73C5690.01 2163.91 5802.14 2222.5 5963.32 2253.75C6019.38 2264.54 6078.53 2266.23 6145.52 2272.39C6423.32 2298.04 6551.28 2222.64 6728.02 2128.87C6872.24 2052.35 7038.33 1956.48 7289.49 1858.37C7559.14 1750.97 7841.98 1680.26 8130.44 1648.13" stroke="#333333" stroke-width="2" stroke-miterlimit="10"/>
<path d="M57.623 911.884C270.685 968.484 479.633 1039.57 683.008 1124.64C702.63 1133.05 722.392 1139.92 741.594 1146.93C1124.79 1287.09 1185.19 1317.22 1395.57 1439.16C1576.79 1544.13 1633.84 1642.24 1834.83 1693.26C1954.26 1722.37 2078.59 1725.24 2199.24 1701.67C2306.6 1682.05 2371.07 1630.47 2434.84 1576.37C2504.92 1516.52 2568.83 1449.25 2669.61 1388C2906.75 1244.48 3160.16 1261.86 3222.67 1222.75C3381.53 1231.08 3534.34 1286.35 3661.78 1381.55C3756.95 1452.89 3813.01 1539.93 3858.85 1567.54C4118.14 1954.66 4021.01 2198.25 4331.04 2347.38C4467.41 2412.83 4637.14 2413.81 4765.53 2407.22C4790.48 2405.96 4813.46 2404.28 4833.5 2403.02C5096.02 2385.22 5200.58 2293.98 5460.29 2249.69C5677.39 2212.83 5787.42 2271.83 5950.84 2301.13C6011.86 2309.62 6073.29 2314.86 6134.87 2316.82C6413.08 2334.9 6543.85 2252.21 6720.03 2151.44C6864.11 2068.88 7029.22 1967.83 7280.66 1868.74C7552.32 1760.51 7838.58 1693.34 8130.02 1669.44" stroke="#333333" stroke-width="2" stroke-miterlimit="10"/>
<path d="M49.4961 903.895C260.373 957.834 468.121 1023.34 671.797 1100.12C691.419 1107.82 711.182 1114.13 730.383 1120.16C1118.62 1247.98 1182.67 1267.88 1389.13 1386.46C1573.01 1491.29 1625.43 1591.79 1829.08 1643.65C1949.02 1673.17 2074.02 1675.66 2195.03 1650.93C2303.66 1630.05 2367.43 1576.79 2430.22 1520.73C2499.18 1459.34 2561.83 1390.1 2664.42 1328.01C2906.76 1181.69 3168.99 1207.2 3226.46 1173.84C3389.9 1188.34 3544.86 1253.06 3670.06 1359.13C3765.5 1439.3 3821.01 1532.5 3864.31 1565.3C4123.61 1983.11 4002.93 2253.05 4309.18 2411.99C4445.83 2482.91 4617.52 2483.75 4745.35 2476.46C4770.58 2475.06 4793.7 2473.24 4813.74 2471.7C5080.04 2451.51 5179.7 2352.42 5443.19 2302.25C5664.36 2260.2 5772.85 2319.63 5937.53 2347.1C5999.12 2355.12 6061.14 2359.38 6123.24 2359.85C6401.87 2370.36 6535.44 2280.38 6710.92 2172.46C6855.14 2084.02 7019.27 1977.64 7271.55 1878.13C7545.39 1768.93 7835.22 1705.16 8129.6 1689.34" stroke="#333333" stroke-width="2" stroke-miterlimit="10"/>
<path d="M41.6445 895.906C281.735 956.875 497.158 1018.96 660.582 1075.87C680.484 1082.88 700.247 1088.2 719.308 1093.81C1112.73 1208.18 1180.29 1218.83 1381.69 1332.08C1569.37 1438.04 1617.72 1540.77 1823.61 1593.61C1944.21 1623.5 2070.02 1625.56 2191.53 1599.64C2301.41 1577.35 2364.48 1522.69 2426.43 1464.53C2493.71 1401.45 2555.52 1330.39 2659.79 1267.46C2907.59 1118.34 3178.38 1151.55 3230.94 1125.48C3398.86 1146.31 3555.7 1220.39 3678.46 1336.84C3774.05 1425.84 3835.3 1519.75 3870.06 1563.34C4192.42 1968.81 3984.85 2307.71 4287.45 2476.74C4424.24 2553.27 4598.32 2553.83 4725.58 2545.84C4751.09 2544.3 4774.22 2542.2 4794.4 2540.51C5063.92 2517.95 5158.81 2411.01 5426.23 2355.09C5651.47 2307.85 5758.41 2367.56 5924.77 2393.07C5986.79 2402.27 6049.53 2405.6 6112.16 2403.02C6390.94 2393.49 6527.59 2308.55 6702.51 2193.76C6846.59 2099.16 7009.46 1987.59 7263.14 1886.68C7539.32 1776.57 7832.8 1716.17 8130.02 1708.26" stroke="#333333" stroke-width="2" stroke-miterlimit="10"/>
<path d="M33.3789 887.917C276.132 947.063 490.154 1003.13 649.093 1051.48C669.135 1057.65 688.898 1062.27 707.959 1067.18C1106.85 1168.09 1177.63 1169.63 1374.55 1279.24C1565.59 1385.76 1609.17 1491.01 1817.73 1544.7C1939.08 1574.97 2065.8 1576.61 2187.89 1549.46C2298.89 1525.63 2361.12 1469.57 2422.23 1409.3C2488.1 1344.55 2548.37 1271.67 2654.89 1207.9C2908.02 1055.83 3186.51 1096.89 3235.29 1077.41C3427.86 1105.44 3579.23 1205.79 3686.6 1315.68C3782.04 1413.79 3842.45 1515.12 3875.39 1562.36C4187.24 2009.04 3966.49 2363.36 4265.31 2542.62C4402.24 2624.61 4578.7 2624.89 4705.4 2616.2C4731.19 2614.38 4754.6 2612.27 4774.64 2610.45C5047.81 2585.36 5138.07 2470.3 5409.14 2408.77C5638.29 2356.49 5743.69 2416.62 5911.6 2440.16C5974.25 2448.65 6037.58 2450.95 6100.68 2447.03C6379.59 2432.03 6519.47 2337.85 6693.82 2215.91C6837.77 2115.28 6999.65 1998.53 7254.46 1896.63C7451.94 1817.72 7738.98 1732.09 8130.16 1728.44" stroke="#333333" stroke-width="2" stroke-miterlimit="10"/>
<path d="M25.2441 879.928C270.521 937.673 483.14 987.008 637.734 1027.23C657.917 1032.42 677.679 1036.34 696.741 1041.25C1100.26 1127.73 1175.1 1120.3 1367.54 1225.98C1559.97 1331.66 1600.76 1440.56 1812.12 1495.08C1934.1 1525.87 2061.67 1527.12 2184.24 1498.72C2296.36 1473.21 2358.03 1416.03 2418.3 1353.8C2482.63 1287.51 2542.48 1212.66 2650.12 1148.05C2908.71 993.876 3195.62 1041.95 3239.63 1029.2C3436.83 1063.11 3588.34 1175.24 3694.86 1294.09C3790.03 1400.33 3849.03 1509.8 3880.85 1560.39C4180.65 2047.44 3947.98 2418.16 4243.44 2607.37C4380.37 2695.11 4559.07 2694.97 4685.5 2685.58C4711.42 2683.61 4734.97 2681.23 4755.57 2679.27C5032.25 2651.24 5117.88 2529.02 5392.59 2461.47C5625.81 2404.14 5729.81 2464.69 5899.26 2486.27C5962.55 2494.1 6026.47 2495.42 6090.02 2490.2C6369.07 2469.59 6511.89 2366.16 6685.83 2237.21C6829.63 2130.55 6990.53 2008.62 7246.46 1905.74C7444.22 1826.27 7733.93 1742.18 8131 1748.2" stroke="#333333" stroke-width="2" stroke-miterlimit="10"/>
<path d="M17.2578 871.938C264.917 928.001 476.135 970.89 626.384 1003.13C646.707 1007.47 666.469 1010.83 685.531 1014.2C1093.95 1087.22 1172.58 1070.96 1360.53 1172.86C1558.29 1279.94 1592.21 1390.1 1806.37 1445.6C1929.05 1476.93 2057.53 1477.75 2180.6 1447.99C2293.84 1420.66 2354.95 1362.35 2414.38 1298.3C2477.17 1230.18 2536.04 1153.66 2645.5 1088.06C2909.28 930.384 3206.83 966.405 3243.97 980.841C3435.71 1054.98 3597.31 1144.4 3703.13 1272.51C3797.88 1387.3 3856.32 1504.33 3886.46 1559.69C4173.08 2085.98 3929.35 2474.36 4221.58 2673.52C4358.51 2766.87 4539.59 2766.17 4665.46 2756.22C4691.8 2754.11 4715.35 2751.59 4735.53 2749.49C5015.85 2719.5 5096.58 2588.87 5375.07 2515.43C5612.22 2452.92 5714.68 2514.02 5885.81 2533.65C5949.74 2540.79 6014.25 2541.12 6078.25 2534.63C6357.44 2508.56 6503.35 2395.73 6676.58 2259.78C6820.38 2147.65 6980.3 2019.83 7237.21 1915.97C7435.12 1835.94 7727.77 1753.67 8130.58 1768.95" stroke="#333333" stroke-width="2" stroke-miterlimit="10"/>
<path d="M9.12695 863.95C259.309 919.032 468.985 954.352 615.03 978.459C635.493 981.823 655.255 984.626 674.457 987.289C1087.64 1046.44 1170.2 1021.63 1353.52 1119.46C1555.35 1227.38 1583.38 1339.5 1800.77 1395.57C1924.15 1427.3 2053.52 1427.69 2177.09 1396.69C2291.18 1367.4 2351.87 1308.25 2410.31 1242.52C2471.7 1172.44 2529.59 1094.37 2640.73 1028.07C2909.98 867.594 3213.84 928.282 3248.32 932.347C3458.55 957.435 3606.14 1113.43 3710.84 1250.78C3781.65 1346.61 3842.16 1449.63 3891.36 1558.15C4164.67 2122.7 3910.14 2529.72 4199.71 2738.84C4336.5 2837.79 4520.11 2836.95 4645.55 2826.16C4672.04 2823.91 4695.87 2821.11 4715.63 2818.87C4999.31 2785.93 5075.42 2647.59 5357.83 2568.69C5598.77 2500.85 5699.96 2562.94 5872.63 2580.32C5937.22 2586.77 6002.32 2586.07 6066.75 2578.22C6346.23 2546.68 6494.8 2424.04 6667.75 2281.5C6811.27 2162.51 6970.21 2030.34 7228.38 1925.64C7426.57 1845.05 7721.74 1764.32 8130.58 1788.99" stroke="#333333" stroke-width="2" stroke-miterlimit="10"/>
<path d="M1 855.961C253.284 908.66 461.699 937.533 603.679 954.071C1073.49 1008.73 1159.55 968.087 1346.52 1066.2C1551.15 1173.7 1575.39 1289.19 1795.02 1346.51C1919.1 1378.78 2049.37 1378.78 2173.45 1346.51C2408.63 1282.04 2415.08 1099.55 2635.97 968.087C2910.54 804.663 3222.67 876.564 3252.66 883.992C3652.39 982.103 3838.8 1420.94 3897.39 1556.75C4157.1 2158.3 3891.78 2585.08 4177.71 2804.15C4343.65 2931.27 4582.48 2902.26 4696.29 2888.25C4983.47 2853.21 5054.95 2706.88 5341.02 2621.95C5663.38 2526.08 5734.44 2663.99 6055.82 2621.95C6568.52 2554.25 6650.79 2167.84 7219.13 1935.17C7417.46 1854.02 7715.43 1774.97 8130.16 1809.03" stroke="#333333" stroke-width="2" stroke-miterlimit="10"/>
<path d="M8.56836 873.48C256.368 926.18 461.278 957.575 603.258 974.954C1060.59 1032.7 1149.87 994.577 1335.72 1092.83C1536.57 1199.35 1563.34 1311.47 1777.5 1369.22C1898.99 1401.31 2026.51 1402.95 2148.78 1373.98C2380.88 1319.18 2389.85 1141.18 2607.38 1014.76C2876.06 857.503 3178.8 922.956 3213.84 928.703C3541.67 981.822 3722.47 1304.89 3811.47 1477.28C3829.69 1512.46 3842.87 1542.73 3853.52 1564.6C4119.82 2134.06 3868.38 2544.16 4150.09 2751.03C4318.28 2874.23 4559.08 2843.25 4677.65 2829.94C4786.31 2818.01 4891.63 2785.17 4987.82 2733.23C5085.93 2684.04 5177.73 2628.53 5328.68 2591.67C5374.93 2580.46 5416.14 2574.29 5453.14 2568.97C5677.4 2536.59 5763.87 2616.34 6034.1 2568.27C6138.64 2549.91 6239.3 2513.94 6331.79 2461.89C6582.82 2321.73 6739.79 2069.44 7128.45 1885.28C7151.25 1874.44 7175.08 1863.88 7199.93 1853.6C7400.08 1770.35 7702.54 1687.52 8123.57 1719.33" stroke="#333333" stroke-width="2" stroke-miterlimit="10"/>
<path d="M16.1387 891C258.892 943.699 460.86 976.356 602.98 995.698C1047.56 1056.39 1139.64 1021.07 1324.93 1119.6C1522.14 1223.87 1551.29 1335.02 1759.42 1391.78C1878.41 1423.79 2003.29 1427.15 2123.83 1401.59C2352.43 1355.76 2364.62 1183.51 2578.65 1061.29C2841.58 911.183 3136.33 959.537 3174.74 973.413C3478.04 1082.03 3674.82 1327.31 3766.48 1489.75C3785.13 1522.83 3798.02 1551.84 3808.53 1572.31C4081 2110.37 3844.41 2502.81 4121.64 2697.91C4291.24 2817.04 4534.69 2784.25 4658.03 2771.49C4767.54 2760.25 4874.28 2730.14 4973.52 2682.49C5073.18 2638.06 5166.38 2589.99 5315.51 2561.54C5361.9 2552.57 5403.39 2549.2 5440.39 2543.88C5663.94 2511.5 5746.64 2574.43 6011.39 2514.44C6114.73 2490.63 6213.67 2450.71 6304.6 2396.15C6546.24 2255.99 6711.06 1994.88 7107.57 1804.55C7130.7 1793.61 7154.8 1782.68 7179.89 1772.03C7381.72 1686.67 7688.66 1600.06 8116.15 1629.49" stroke="#333333" stroke-width="2" stroke-miterlimit="10"/>
<path d="M23.707 908.521C261.415 961.08 460.299 995.698 602.279 1017.14C1034.25 1080.35 1129.41 1048.26 1313.86 1146.79C1507.28 1249.38 1538.95 1358.43 1742.04 1414.91C1858.47 1446.64 1980.61 1451.43 2099.17 1428.93C2323.42 1391.78 2339.54 1225.28 2550.05 1107.82C2807.24 964.303 3092.6 1001.02 3135.91 1017.84C3376.75 1114.37 3581.49 1283.59 3721.63 1501.95C3740.69 1532.92 3753.45 1560.67 3763.68 1579.88C4042.03 2085.42 3820.58 2461.75 4092.91 2645.07C4264.46 2760.28 4510.16 2725.38 4638.27 2713.47C4748.66 2702.7 4856.79 2675.24 4958.95 2632.04C5060.42 2592.37 5155.17 2551.87 5302.05 2531.54C5348.87 2525.1 5390.49 2524.4 5427.5 2519.07C5650.77 2486.55 5728.98 2533.09 5988.13 2460.91C6090.06 2431.5 6187.29 2387.71 6276.85 2330.84C6509.09 2189.7 6682.47 1921.16 7085.98 1724.1C7109.25 1712.88 7133.64 1701.72 7159.15 1690.6C7362.66 1603.28 7674.23 1512.88 8108.02 1540.07" stroke="#333333" stroke-width="2" stroke-miterlimit="10"/>
<path d="M31.2754 925.899C263.938 978.599 459.878 1015.04 602.139 1038.03C1021.49 1103.76 1119.88 1074.89 1302.93 1173.56C1492.42 1274.61 1527.18 1381.27 1724.1 1437.61C1838.09 1469.51 1957.66 1476.2 2074.5 1457.24C2295.53 1429.21 2314.45 1268.02 2521.6 1155.2C2773.04 1017.14 3045.65 1072.08 3097.09 1062.69C3393.52 1122.54 3579.93 1371.04 3676.92 1514.56C3696.4 1543.29 3708.88 1569.64 3719.81 1587.72C4004.33 2061.18 3798.02 2420.4 4065.3 2591.67C4239.1 2702.96 4486.62 2666.1 4619.63 2654.74C4731 2644.49 4840.55 2619.71 4945.49 2581.02C5048.93 2546.12 5144.8 2513.32 5289.86 2500.99C5336.95 2496.92 5378.72 2499.03 5416 2493.7C5638.99 2461.18 5712.72 2490.76 5967.1 2406.94C6074.88 2371.34 6163.32 2320.33 6251.34 2264.82C6474.47 2123.41 6655.56 1845.89 7066.78 1643.09C7090.14 1631.59 7114.81 1620.15 7140.79 1608.75C7346.12 1519.19 7662.17 1425 8102.27 1449.95" stroke="#333333" stroke-width="2" stroke-miterlimit="10"/>
<path d="M38.7031 943.419C265.899 995.978 459.317 1034.24 602.278 1058.07C1008.74 1126.18 1109.65 1101.24 1292.7 1199.35C1478.27 1299.14 1515.13 1403.28 1707.14 1459.34C1818.48 1491.22 1935.24 1499.52 2049.97 1483.73C2266.79 1462.98 2289.5 1308.95 2493.15 1200.89C2738.71 1070.68 3001.36 1120.72 3058.55 1107.12C3346.15 1161.5 3532.42 1392.76 3632.35 1526.75C3652.25 1553.38 3664.59 1578.47 3675.8 1595.29C3966.35 2036.37 3775.59 2378.63 4037.55 2538.27C4213.59 2645.63 4463.07 2606.67 4600.7 2596.16C4740.86 2585.5 4839.67 2556.49 4931.9 2530.14C5037.3 2500.01 5135.41 2456.28 5277.39 2470.44C5319.36 2474.96 5361.73 2474.25 5403.53 2468.33C5626.38 2435.82 5695.34 2449.13 5944.82 2352.84C6049.24 2312.62 6136.13 2257.26 6225.13 2198.67C6439.15 2057.39 6627.95 1771.33 7046.74 1561.93C7070.38 1550.16 7095.33 1538.39 7121.58 1526.61C7328.6 1435.09 7649.14 1337.12 8095.68 1359.69" stroke="#333333" stroke-width="2" stroke-miterlimit="10"/>
<path d="M46.2676 961.079C268.979 1013.64 458.893 1053.72 601.293 1079.09C995.557 1149.17 1099.69 1127.87 1281.9 1226.26C1464.11 1324.65 1503.21 1426.12 1689.48 1482.32C1851.78 1531.24 1987.03 1520.73 2025.86 1511.62C2232.87 1462.56 2264.83 1351.14 2465.11 1247.84C2704.78 1124.22 2957.77 1169.77 3020.28 1152.11C3298.91 1201.17 3484.9 1414.63 3588.2 1539.37C3608.38 1563.9 3620.58 1587.72 3631.93 1603.42C3928.5 2012.12 3753.73 2337.01 4010.35 2485.57C4188.92 2589.01 4439.94 2547.94 4582.48 2538.13C4725.02 2528.32 4824.95 2501.97 4918.86 2479.69C5026.08 2454.32 5127.55 2416.33 5265.47 2440.58C5307.09 2448.28 5349.68 2449.27 5391.61 2443.53C5614.18 2411.01 5678.51 2408.07 5922.95 2299.44C6024.14 2254.59 6109.08 2194.75 6198.22 2133.64C6403.27 1993.48 6599.91 1697.75 7026.13 1481.76C7049.96 1469.71 7075.19 1457.66 7101.82 1445.6C7310.65 1351.98 7635.68 1250.22 8088.53 1270.41" stroke="#333333" stroke-width="2" stroke-miterlimit="10"/>
<path d="M53.8359 978.179C271.501 1031.16 458.332 1073.21 600.872 1099.56C982.522 1171.32 1089.74 1154.08 1271.11 1252.47C1449.11 1349.18 1491.16 1448.69 1671.96 1504.75C1829.78 1553.67 1961.25 1547.64 2000.63 1538.95C2203.58 1493.82 2238.9 1392.9 2435.96 1294.37C2669.74 1177.2 2912.5 1218.55 2980.89 1196.26C3250.7 1239.85 3435.99 1434.53 3542.79 1551.28C3558.55 1570.28 3573.33 1590.06 3587.08 1610.57C3889.4 1986.89 3731.02 2294.26 3981.48 2431.89C4162.71 2531.26 4415.27 2487.96 4562.58 2479.13C4704.28 2470.44 4808.41 2446.47 4904.14 2428.39C5013.32 2407.79 5118.16 2376.53 5251.87 2409.75C5293.27 2420.71 5336.4 2423.47 5378.86 2417.88C5601.29 2385.22 5660.85 2366.3 5900.38 2245.06C5998.49 2195.59 6081.19 2131.53 6171.03 2067.34C6367.25 1927.19 6571.6 1623.04 7005.25 1400.47C7029.26 1388.14 7054.77 1375.81 7081.77 1363.47C7292.01 1267.74 7621.8 1162.21 8081.1 1180.15" stroke="#333333" stroke-width="2" stroke-miterlimit="10"/>
<path d="M61.4062 995.418C274.026 1048.12 457.773 1091.57 600.594 1120.16C969.489 1193.88 1079.79 1180.57 1261.02 1278.96C1435.23 1374.12 1479.8 1471.11 1655 1526.9C1809.18 1575.81 1936.16 1574.27 1976.66 1566C2175.69 1525.21 2214.93 1434.39 2408.07 1340.49C2635.97 1229.9 2869.33 1266.9 2942.77 1240.83C3203.61 1278.96 3387.91 1456.26 3498.78 1563.2C3514.69 1580.62 3529.61 1598.92 3543.49 1618C3851.84 1961.8 3709.86 2251.37 3954.15 2378.35C4138.04 2473.8 4392.01 2428.53 4544.08 2420.4C4687.04 2412.55 4793.56 2391.11 4890.97 2377.23C5006.75 2361.31 5124.21 2361.92 5239.82 2379.05C5289.16 2385.36 5330.64 2397.69 5367.22 2393.07C5589.38 2360.27 5644.18 2325.65 5878.8 2191.66C5973.27 2137.7 6054.42 2069.02 6145.1 2002.03C6332.77 1862.99 6544.41 1549.18 6986.05 1320.02C7010.16 1307.55 7036.09 1294.79 7063.56 1282.04C7275.76 1183.93 7610.17 1074.89 8075.36 1090.58" stroke="#333333" stroke-width="2" stroke-miterlimit="10"/>
<path d="M69.6777 1019.52C277.252 1072.08 458.055 1117.64 600.876 1147.49C956.597 1222.75 1069.98 1213.36 1249.53 1312.17C1420.1 1405.8 1467.05 1500.41 1636.78 1556.05C1785.91 1604.96 1909.53 1607.77 1951.16 1600.06C2146.54 1564.04 2188.73 1482.75 2378.92 1393.61C2600.79 1289.61 2824.48 1322.26 2903.25 1292.13C3155.53 1324.79 3337.74 1483.59 3453.23 1582.54C3469.29 1598.37 3484.4 1615.12 3498.5 1632.71C3811.75 1944 3687.57 2215.63 3925.42 2332.1C4112.25 2423.62 4367.34 2376.39 4524.32 2368.96C4668.26 2362.09 4777.3 2343.17 4876.39 2333.5C4989.36 2322.43 5094.62 2331.82 5226.79 2355.79C5276.82 2364.9 5318.17 2379.61 5354.61 2374.29C5576.48 2341.49 5626.66 2291.17 5856.38 2144.15C5947.48 2085.7 6026.67 2012.68 6118.05 1942.6C6297.31 1804.97 6516.24 1481.48 6964.75 1245.6C6989.13 1232.7 7015.2 1219.81 7043.09 1206.63C7256.98 1106.84 7595.46 993.736 8067.51 1007.05" stroke="#333333" stroke-width="2" stroke-miterlimit="10"/>
<path d="M76.543 1080.21C279.071 1132.77 456.791 1179.72 599.753 1211.54C943.56 1288.21 1060.03 1283.44 1238.73 1381.55C1405.52 1473.64 1455 1566 1619.26 1621.36C1763.9 1670.28 1883.6 1677.42 1926.49 1670.28C2118.22 1639.3 2163.49 1567.26 2350.32 1482.89C2566.17 1384.78 2780.19 1413.93 2864.42 1379.45C3107.46 1407.48 3274.39 1569.5 3408.52 1637.76C3426.32 1656.82 3441.73 1672.24 3454.07 1683.17C3772.65 1961.8 3666.27 2215.77 3897.39 2321.73C4087.3 2409.05 4343.51 2359.85 4505.25 2353.26C4650.18 2347.38 4761.74 2330.98 4862.52 2325.23C4977.45 2318.93 5084.67 2337.57 5213.61 2367.98C5264.35 2379.89 5305.56 2396.99 5341.86 2391.53C5563.59 2358.73 5609 2293.42 5833.67 2132.8C5921.55 2070.15 5998.78 1992.64 6090.86 1919.34C6261.85 1783.24 6487.93 1449.81 6943.86 1207.34C6968.44 1194.35 6994.83 1181.08 7023.05 1167.53C7238.75 1066.34 7582.14 949.446 8060.08 961.079" stroke="#333333" stroke-width="2" stroke-miterlimit="10"/>
<path d="M83.6953 1134.87C281.598 1187.43 456.235 1235.93 599.336 1269.43C930.67 1347.35 1050.79 1347.35 1227.94 1446.02C1390.95 1536.43 1442.95 1626.55 1601.61 1681.77C1741.76 1730.54 1857.53 1741.48 1901.82 1735.45C2090.06 1709.8 2138.27 1646.87 2322.3 1567.26C2532.53 1476.16 2736.46 1500.41 2826.17 1461.86C3060.23 1483.73 3225.48 1631.03 3364.23 1687.8C3378.77 1702.3 3394.17 1715.92 3410.34 1728.58C3733.83 1974.84 3645.67 2209.74 3869.92 2306.31C4063.06 2389.42 4320.11 2338.27 4486.62 2332.66C4632.66 2327.62 4746.75 2313.74 4849.06 2312.48C4965.96 2310.94 5075.28 2339.11 5201.42 2375.69C5252.72 2390.55 5293.93 2409.89 5330.23 2403.72C5551.54 2370.78 5592.46 2289.91 5812.09 2116.26C5896.18 2049.4 5972.01 1967.55 6064.37 1891.02C6227.1 1756.75 6460.18 1413.09 6923.54 1163.89C6948.21 1149.87 6974.98 1136.98 7003.57 1123.24C7220.96 1019.1 7568.41 898.99 8053.22 907.259" stroke="#333333" stroke-width="2" stroke-miterlimit="10"/>
<path d="M91.543 1189.54C284.26 1242.09 455.954 1292.13 598.915 1327.59C917.774 1406.36 1040.13 1410.98 1217.15 1509.8C1376.37 1598.66 1430.89 1686.53 1584.08 1741.48C1720.04 1790.25 1831.6 1794.32 1877.16 1800.06C2061.46 1823.61 2113.04 1725.78 2293.14 1651.07C2497.07 1566.98 2691.61 1586.46 2786.78 1543.71C3012.01 1560.11 3175.3 1692.14 3319.38 1737.41C3334.06 1750.49 3349.61 1762.57 3365.91 1773.57C3694.16 1987.31 3624.5 2203.3 3842.45 2290.33C4038.67 2369.1 4296.7 2316.26 4468.11 2311.36C4615.28 2307.29 4731.75 2296.08 4835.75 2298.88C4954.6 2302.11 5065.75 2340.09 5189.23 2382.98C5241.23 2400.78 5282.15 2422.22 5318.45 2416.9C5539.62 2383.82 5576.06 2287.81 5790.36 2100.7C5871.8 2029.64 5945.24 1943.3 6038.58 1863.55C6192.76 1731.24 6433.27 1377.21 6904.06 1120.72C6929.01 1107.26 6955.96 1093.25 6984.93 1078.67C7204 972.432 7556.07 847.972 8047.19 854.419" stroke="#333333" stroke-width="2" stroke-miterlimit="10"/>
<path d="M99.1113 1244.34C286.783 1297.46 455.253 1348.33 598.494 1385.62C904.879 1465.23 1030.18 1474.76 1206.36 1573.71C1361.79 1660.89 1418.84 1745.96 1566.42 1802.02C1698.03 1850.8 1805.81 1858.09 1852.35 1865.52C2032.03 1893.55 2087.67 1805.53 2264.55 1735.59C2462.45 1657.24 2647.46 1673.22 2747.96 1626.27C2964.22 1637.34 3126.38 1753.81 3274.11 1787.73C3288.93 1799.42 3304.63 1809.96 3321.06 1819.26C3653.8 2000.63 3603.48 2197.69 3813.3 2275.2C4013.3 2349.34 4271.75 2294.82 4447.79 2290.89C4596.08 2287.67 4715.07 2279.12 4820.75 2286.13C4941.57 2294.12 5054.53 2342.19 5175.35 2390.27C5227.91 2411.29 5268.84 2434.84 5305 2429.37C5525.89 2396.29 5558.12 2285.29 5767.52 2084.58C5845.73 2009.32 5917.21 1918.64 6011.11 1835.52C6158 1705.32 6404.68 1340.77 6882.89 1078.67C6908.03 1064.75 6935.27 1050.73 6964.61 1036.62C7185.5 928.422 7541.92 800.178 8039.48 804.383" stroke="#333333" stroke-width="2" stroke-miterlimit="10"/>
<path d="M106.682 1299C288.887 1351.42 454.694 1404.4 598.075 1443.64C892.407 1523.81 1020.23 1538.67 1195.57 1637.48C1347.36 1723.11 1406.79 1806.65 1548.91 1861.73C1676.03 1910.51 1780.03 1921.02 1827.68 1930.13C2002.6 1963.34 2062.45 1884.3 2235.96 1819.26C2427.84 1747.36 2603.17 1759.14 2709.13 1707.98C2916.57 1713.58 3076.35 1814.78 3229.4 1837.2C3244.4 1847.45 3260.25 1856.41 3276.77 1863.97C3613.15 2013.52 3582.88 2190.12 3785.27 2259.08C3987.65 2328.03 4247.79 2273.09 4428.73 2269.59C4578 2267.21 4699.52 2261.18 4807.16 2272.39C4929.8 2285.15 5044.59 2342.47 5162.88 2397.13C5216 2421.38 5256.92 2446.75 5292.95 2441.42C5513.55 2408.2 5541.73 2282.48 5745.09 2067.9C5820.36 1988.57 5889.88 1893.55 5984.34 1806.93C6123.38 1679.25 6376.79 1303.9 6862.29 1034.52C6887.52 1020.51 6915.13 1006.49 6944.85 991.212C7167.14 880.348 7528.18 748.319 8032.05 750.842" stroke="#333333" stroke-width="2" stroke-miterlimit="10"/>
<path d="M114.25 1353.52C291.83 1405.94 454.273 1460.32 597.795 1501.39C879.232 1582.12 1010.28 1602.16 1184.78 1701.11C1332.78 1785.21 1395.01 1866.36 1531.25 1920.74C1654.17 1969.51 1754.38 1983.25 1803.01 1994.04C1973.3 2031.74 2037.08 1962.51 2207.51 1902.24C2393.22 1836.64 2558.88 1844.49 2670.03 1789.13C2868.49 1789.13 3026.45 1875.05 3184.27 1885.98C3199.57 1894.78 3215.61 1902.24 3232.2 1908.26C3573.63 2026.28 3562.42 2182.13 3757.24 2242.68C3964.53 2307.01 4223.82 2249.97 4409.67 2248.01C4559.92 2246.32 4683.96 2242.96 4793 2258.38C4917.6 2275.9 5033.93 2344.01 5149.84 2403.58C5203.52 2431.61 5244.31 2458.38 5280.33 2452.92C5500.8 2419.84 5524.91 2279.26 5722.67 2050.8C5794.85 1967.41 5862.83 1868.6 5957.29 1777.92C6088.76 1652.76 6348.61 1266.62 6841.55 990.513C6867.06 976.217 6894.86 961.453 6924.94 946.223C7149.2 834.097 7514.73 698.144 8025.04 697.724" stroke="#333333" stroke-width="2" stroke-miterlimit="10"/>
<path d="M121.818 1408.46C294.353 1460.88 453.712 1516.52 597.374 1559.69C866.477 1640.7 1000.47 1666.21 1173.98 1765.44C1318.21 1847.72 1382.68 1926.76 1513.73 1980.87C1599.52 2014.51 1688.05 2040.67 1778.34 2059.07C1944.01 2101.12 2011.71 2041.69 2178.92 1986.33C2358.46 1927.04 2515.3 1930.27 2631.49 1871.26C2820.98 1866.08 2977.26 1936.44 3139.84 1936.01C3155.38 1943.33 3171.57 1949.2 3188.19 1953.53C3532.7 2039.87 3542.23 2174.56 3729.2 2226.84C3940.42 2285.85 4199.99 2231.33 4390.47 2226.84C4541.84 2223.34 4668.26 2225.44 4779.13 2244.92C4905.27 2267.21 5023.56 2345.7 5137.09 2410.59C5191.19 2441.42 5232.12 2470.58 5268 2465.11C5488.19 2431.89 5508.51 2276.74 5700.52 2034.27C5769.62 1946.95 5835.5 1843.51 5930.66 1749.47C6054.42 1626.97 6320.72 1229.9 6821.09 947.063C6846.74 933.048 6874.77 917.49 6905.18 901.933C7131.26 787.424 7501.27 647.827 8017.9 645.164" stroke="#333333" stroke-width="2" stroke-miterlimit="10"/>
<path d="M129.389 1463.26C297.578 1515.68 453.294 1572.45 596.956 1617.44C853.725 1698.45 990.519 1729.56 1163.33 1828.93C1303.49 1909.53 1370.63 1986.47 1496.07 2040.29C1579.67 2074.84 1665.79 2102.95 1753.68 2124.39C1915 2170.5 1986.34 2121.02 2150.33 2070.85C2323.7 2017.59 2470.45 2017.45 2592.66 1953.82C2773.33 1943.02 2927.78 1998.1 3094.99 1986.19C3110.82 1991.97 3127.15 1996.29 3143.77 1999.09C3492.2 2054.45 3522.19 2167.28 3701.17 2211.56C3916.46 2264.82 4176.03 2209.6 4371.41 2206.24C4523.9 2203.72 4652.71 2208.34 4765.25 2232.03C4893.64 2259.08 5012.91 2347.94 5124.48 2418.16C5178.72 2452.36 5219.92 2483.33 5255.67 2477.86C5475.71 2444.51 5492.25 2274.78 5678.24 2018.29C5744.54 1926.9 5808.59 1819.4 5903.9 1721.71C6020.51 1602.02 6292.97 1193.88 6800.91 904.176C6826.7 889.459 6855.15 874.042 6885.98 858.064C7113.88 741.593 7488.66 598.212 8011.31 593.166" stroke="#333333" stroke-width="2" stroke-miterlimit="10"/>
<path d="M136.814 1518.07C299.398 1570.34 452.871 1628.37 596.532 1675.88C840.547 1757.03 980.705 1793.75 1152.54 1893.27C1289.19 1972.32 1358.57 2047.44 1478.55 2100.56C1559.96 2135.36 1643.59 2164.77 1728.87 2188.58C1885.99 2238.61 1960.97 2199.37 2121.31 2154.1C2288.66 2107.15 2425.73 2103.08 2553.42 2035.11C2725.11 2018.99 2877.74 2058.65 3049.86 2035.11C3065.96 2039.4 3082.43 2042.16 3099.05 2043.38C3451.41 2068.04 3501.45 2158.02 3672.72 2194.89C3892.07 2242.26 4151.64 2186.48 4351.92 2184.51C4505.4 2182.83 4636.72 2189.98 4750.95 2217.87C4881.3 2249.69 5001.84 2348.92 5111.3 2424.46C5165.82 2462.17 5207.17 2494.54 5242.91 2489.36C5462.68 2456 5475.85 2271.55 5655.67 2001.05C5719.02 1905.74 5781.81 1794.32 5876.7 1692.7C5986.59 1575.95 6264.66 1157.3 6780.16 860.166C6806.09 845.169 6834.82 829.471 6866.08 813.213C7095.66 694.78 7474.64 547.474 8004.02 540.606" stroke="#333333" stroke-width="2" stroke-miterlimit="10"/>
<path d="M144.385 1572.87C301.922 1625.29 452.732 1684.15 596.114 1734.19C828.496 1815.06 970.756 1857.81 1141.75 1957.32C1274.76 2034.69 1346.52 2107.43 1460.89 2160.55C1540.15 2196.14 1621.39 2227.17 1704.2 2253.47C1857.11 2307.43 1935.46 2278.28 2093.14 2238.05C2254.32 2197.13 2381.87 2189.28 2515.02 2117.24C2677.88 2095.65 2828.69 2119.9 3005.57 2085.14C3022.02 2087.34 3038.59 2088.51 3055.18 2088.65C3411.19 2104.48 3481.83 2149.61 3645.11 2179.33C3868.52 2219.97 4128.23 2161.67 4333.14 2163.63C4487.32 2165.17 4621.59 2172.6 4737.5 2204.7C4869.81 2241.28 4991.33 2351.02 5098.97 2431.75C5153.77 2472.96 5195.4 2507.16 5231 2501.83C5450.62 2468.47 5460.43 2269.59 5633.81 1985.07C5694.36 1885.7 5755.33 1770.35 5850.49 1664.53C5952.81 1550.72 6237.47 1120.3 6759.7 816.997C6785.96 801.673 6814.87 785.742 6846.46 769.203C7077.72 648.388 7461.33 497.438 7997.01 487.907" stroke="#333333" stroke-width="2" stroke-miterlimit="10"/>
<path d="M151.953 1627.53C304.445 1679.81 452.312 1739.65 595.693 1792.07C816.021 1872.52 960.804 1921.3 1130.96 2021.09C1260.18 2096.78 1334.33 2167.42 1443.37 2220.25C1544.28 2269.31 1625.57 2297.34 1679.53 2318.36C1828.38 2375.97 1910.09 2357.05 2064.55 2322.15C2204.26 2290.07 2341.76 2249.01 2476.19 2199.23C2623.64 2147.37 2777.53 2095.79 2960.72 2134.9C2977.35 2137.21 2994.24 2136.83 3010.75 2133.78C3371.52 2098.18 3461.64 2140.79 3617.08 2163.63C3844.69 2196.99 4104.27 2139.52 4314.08 2142.61C4469.8 2144.85 4606.03 2155.08 4723.62 2191.24C4857.76 2233.29 4980.39 2352.98 5086.21 2438.9C5141.15 2483.61 5183.2 2519.49 5218.8 2514.02C5438.01 2480.53 5444.74 2267.07 5611.24 1968.53C5668.99 1865.1 5728.56 1746.1 5823.3 1636.22C5918.05 1526.33 6209.72 1084.56 6738.81 773.409C6765.16 758.131 6794.88 741.733 6826.41 724.774C7059.5 601.996 7447.45 447.262 7989.72 435.349" stroke="#333333" stroke-width="2" stroke-miterlimit="10"/>
<path d="M159.518 1682.33C306.964 1734.61 452.027 1794.46 595.409 1850.52C803.543 1930.55 950.989 1985.49 1120.16 2085.42C1246.3 2159.43 1322.27 2227.96 1425.7 2280.52C1522.27 2329.72 1600.76 2360.41 1654.86 2383.26C1799.79 2444.51 1884.58 2435.68 2035.95 2406.1C2184.66 2377.09 2283.33 2340.09 2437.36 2281.36C2576.12 2228.38 2723.85 2218.15 2916 2184.65C2933.66 2181.57 2950.62 2181.85 2966.46 2179.05C3331.71 2113.45 3441.46 2131.67 3589.04 2147.93C3820.72 2173.3 4080.44 2117.52 4294.88 2121.58C4451.71 2124.67 4590.47 2137.56 4709.74 2177.65C4845.84 2223.9 4969.32 2354.52 5073.45 2445.77C5128.54 2493.98 5171.57 2531.54 5206.46 2526.08C5425.39 2492.58 5429.18 2264.4 5589.38 1951.43C5644.46 1843.93 5702.76 1721.57 5796.95 1607.21C5885.67 1499.56 6182.38 1047.28 6718.77 729.399C6745.4 713.841 6774.83 697.162 6807.21 679.783C7041.97 555.043 7434.56 396.525 7982.99 382.229" stroke="#333333" stroke-width="2" stroke-miterlimit="10"/>
<path d="M167.787 1736.99C310.188 1789.27 452.588 1850.24 595.689 1908.12C791.91 1987.59 941.739 2048.28 1110.07 2148.91C1231.87 2221.24 1310.92 2287.67 1408.89 2340.09C1500.97 2389.14 1576.09 2422.36 1630.9 2447.59C1772.03 2512.48 1859.91 2513.74 2008.2 2489.64C2150.6 2466.37 2240.72 2428.67 2399.24 2363.5C2529.73 2309.39 2674.79 2284.03 2871.85 2234.55C2889.37 2230.21 2906.75 2228.38 2922.87 2224.32C3292.89 2128.87 3422.39 2148.21 3561.71 2132.24C3799.04 2106.17 4037.82 2095.68 4276.52 2100.84C4434.47 2104.62 4575.61 2120.18 4696.99 2164.75C4835.05 2215.77 4959.23 2356.91 5061.4 2453.34C5116.48 2505.05 5159.51 2544.16 5194.83 2538.83C5413.62 2505.19 5414.32 2262.44 5567.93 1936.16C5620.35 1824.73 5677.68 1699.01 5771.02 1580.02C5853.01 1475.6 6155.19 1011.68 6699.01 687.212C6725.78 671.374 6755.07 654.415 6788.29 636.755C7024.87 509.772 7421.8 347.47 7976.69 331.071" stroke="#333333" stroke-width="2" stroke-miterlimit="10"/>
<path d="M174.656 1776.38C312.011 1828.65 451.749 1890.04 595.13 1950.87C779.578 2029.5 931.509 2097.2 1099.7 2197.41C1217.85 2267.49 1299.28 2332.52 1391.79 2384.52C1479.39 2433.71 1551.29 2469.45 1606.51 2496.65C1744.28 2565.04 1834.83 2576.4 1980.03 2557.75C2116.26 2540.23 2198.26 2502.53 2360.84 2429.09C2483.34 2373.73 2626.3 2333.78 2827.57 2267.91C2845.09 2262.16 2862.46 2258.38 2879 2252.91C3254.07 2127.89 3402.77 2116.12 3534.1 2100.14C3774.17 2070.6 4016.05 2058.28 4257.88 2063.28C4416.82 2067.9 4560.48 2086.12 4682.98 2134.9C4823.13 2190.96 4947.87 2342.19 5049.07 2443.25C5104.01 2498.47 5147.18 2539.39 5182.92 2533.93C5401.43 2500.15 5399.46 2242.82 5546.07 1902.38C5595.83 1786.75 5652.59 1657.94 5744.67 1534.32C5820.22 1432.99 6127.72 957.576 6678.97 626.383C6705.88 610.265 6736.01 593.026 6769.09 575.086C7007.36 446.001 7408.91 279.914 7970.1 261.133" stroke="#333333" stroke-width="2" stroke-miterlimit="10"/>
<path d="M181.803 1797.54C314.112 1849.82 451.467 1911.21 593.727 1975.26C766.401 2053.05 921.136 2126.91 1087.36 2227.54C1201.87 2296.36 1285.55 2359.01 1372.58 2410.59C1455.84 2459.92 1524.52 2497.91 1580.3 2527.9C1714.71 2599.8 1807.91 2621.11 1949.89 2608.07C2079.96 2596.16 2154.39 2559.44 2320.47 2477.44C2435.12 2421.38 2576.4 2366.44 2781.17 2284.03C2798.83 2277.02 2816.35 2271.27 2833.03 2264.4C3213.7 2109.53 3380.49 2066.22 3504.53 2050.66C3746.02 2020.53 4008.25 2001.19 4237.13 2008.62C4397.19 2013.8 4543.24 2034.83 4667.56 2087.81C4809.54 2148.35 4934.84 2310.24 5034.77 2417.32C5089.71 2476.18 5133.86 2518.51 5169.04 2513.04C5387.41 2479.41 5382.64 2207.22 5522.38 1852.9C5569.47 1733.21 5625.96 1601.46 5716.36 1472.93C5785.6 1374.82 6098.29 887.917 6656.96 549.997C6684.15 533.739 6714.42 516.079 6747.92 497.719C6988.01 366.671 7393.91 196.801 7961.55 175.356" stroke="#333333" stroke-width="2" stroke-miterlimit="10"/>
<path d="M189.652 1817.72C317.056 1869.86 452.168 1931.25 593.728 1998.81C759.221 2076.35 920.531 2162.53 1076.99 2256.98C1187.86 2324.25 1273.21 2384.94 1355.49 2435.96C1434.11 2485.71 1499.71 2525.8 1556.05 2558.17C1687.24 2633.72 1782.97 2664.83 1921.72 2657.55C2045.76 2651.1 2113.04 2616.2 2282.07 2524.96C2389.43 2467.07 2529.17 2398.11 2736.88 2299.3C2754.54 2290.89 2772.2 2283.18 2789.16 2275.06C3175.3 2090.33 3358.9 2008.06 3476.92 2000.35C3723.45 1984.65 3984.71 1944.28 4218.49 1953.11C4379.67 1958.86 4528.1 1982.97 4654.1 2040.01C4798.05 2105.33 4923.77 2278.28 5022.44 2390.41C5077.1 2452.78 5121.95 2496.79 5157.13 2491.46C5375.22 2457.54 5367.37 2170.64 5500.52 1802.44C5547.54 1664.52 5611.17 1532.83 5690.01 1410.28C5753.08 1315.12 6070.82 816.857 6636.78 472.21C6664.11 455.671 6694.66 437.731 6728.58 419.09C6970.35 285.94 7380.88 112.285 7954.82 88.8789" stroke="#333333" stroke-width="2" stroke-miterlimit="10"/>
<path d="M197.221 1837.06C497.473 1965.08 787.915 2114.99 1066.2 2285.57C1513.86 2560.14 1636.22 2708.42 1893.13 2706.04C2080.24 2704.22 2124.39 2624.61 2692.03 2313.6C3118.95 2079.68 3332.41 1963.21 3448.88 1949.19C3867.4 1900.27 4324.87 1839.73 4640.23 1991.24C4867.56 2100.42 5046.69 2482.91 5144.8 2467.77C5435.62 2422.64 5320.83 1900.13 5663.38 1346.51C5720.42 1254.29 6043.07 744.816 6616.45 393.441C6839.02 257.068 7285.85 30.2929 7947.95 1" stroke="#333333" stroke-width="2" stroke-miterlimit="10"/>
</svg>